<?xml version="1.0" encoding="UTF-8" standalone="no"?>
<svg xmlns:dc="http://purl.org/dc/elements/1.1/" xmlns:cc="http://creativecommons.org/ns#"
	xmlns:rdf="http://www.w3.org/1999/02/22-rdf-syntax-ns#" xmlns:svg="http://www.w3.org/2000/svg"
	xmlns="http://www.w3.org/2000/svg" xmlns:sodipodi="http://sodipodi.sourceforge.net/DTD/sodipodi-0.dtd"
	xmlns:inkscape="http://www.inkscape.org/namespaces/inkscape" version="1.1" id="Capa_1" x="0px" y="0px"
	viewBox="0 0 177.871 177.871" style="enable-background:new 0 0 177.871 177.871;" xml:space="preserve"
	sodipodi:docname="football.svg" inkscape:version="1.0.2 (e86c870879, 2021-01-15, custom)">
	<metadata id="metadata45">
		<rdf:RDF>
			<cc:Work rdf:about="">
				<dc:format>image/svg+xml</dc:format>
				<dc:type rdf:resource="http://purl.org/dc/dcmitype/StillImage" />
			</cc:Work>
		</rdf:RDF>
	</metadata>
	<defs id="defs43" />
	<sodipodi:namedview pagecolor="#ffffff" bordercolor="#666666" borderopacity="1" objecttolerance="10"
		gridtolerance="10" guidetolerance="10" inkscape:pageopacity="0" inkscape:pageshadow="2"
		inkscape:window-width="1802" inkscape:window-height="1051" id="namedview41" showgrid="false"
		inkscape:zoom="4.9474056" inkscape:cx="67.81332" inkscape:cy="88.935501" inkscape:window-x="109"
		inkscape:window-y="-9" inkscape:window-maximized="1" inkscape:current-layer="g8" />
	<g id="g8" style="display:inline">
		<path
			d="m 174.692,88.613 c -0.003,-0.359 0.013,-0.714 0.006,-1.074 C 174.015,53.896 152.42,18.67 121.702,5.452 c 0.002,-0.02 0.006,-0.041 0.008,-0.061 0.128,-1.179 -1.503,-1.575 -2.188,-0.85 C 109.147,0.488 97.795,-1.073 85.89,0.763 79.79,1.704 73.868,3.104 68.177,4.927 67.918,4.933 67.66,4.93 67.401,4.937 67.144,4.944 67.019,5.131 67.002,5.326 28.398,18.174 0.822,50.836 2.746,94.767 c 0.642,14.675 5.03,28.846 12.238,41.208 -0.122,0.429 0.133,0.814 0.555,0.957 9.982,16.65 25.162,29.86 43.309,36.347 0.331,0.428 0.898,0.645 1.436,0.504 8.25,2.763 17.086,4.156 26.321,3.837 0.158,0.137 0.346,0.253 0.627,0.251 47.907,-0.457 87.041,-40.095 87.451,-87.794 0.006,-0.003 0.013,-0.005 0.019,-0.007 0.755,-0.31 0.627,-1.28 -0.01,-1.457 z M 121.28,8.554 c 8.048,3.429 15.622,8.703 22.698,16.136 4.507,4.735 8.631,9.924 12.27,15.44 -2.934,0.792 -5.864,2.153 -8.627,3.329 0.337,-0.375 0.445,-0.938 -0.024,-1.337 -9.059,-7.732 -18.845,-14.906 -28.304,-22.192 0.854,-3.751 1.489,-7.556 1.987,-11.376 z M 62.775,10.1 c 6.152,0.856 12.281,1.281 18.51,1.149 0.765,-0.016 0.768,-1.186 0,-1.19 C 76,10.032 70.726,9.685 65.472,9.134 c 2.735,-0.959 5.509,-1.855 8.386,-2.572 0.988,-0.246 1.956,-0.43 2.935,-0.646 8.549,0.102 17.102,0.1 25.647,-0.077 0.61,-0.013 0.611,-0.936 0,-0.948 C 95.976,4.758 89.508,4.713 83.04,4.732 95.835,2.72 107.776,3.436 118.823,7.577 c -0.678,3.797 -1.2,7.629 -1.527,11.467 -0.65,0.229 -1.069,1.003 -0.405,1.622 0.139,0.13 0.292,0.26 0.432,0.39 0.084,0.127 0.181,0.212 0.315,0.284 8.71,8.072 18.586,16.274 28.732,22.372 0.222,0.133 0.451,0.14 0.666,0.094 -0.167,0.122 -0.343,0.241 -0.416,0.412 -0.359,0.005 -0.724,0.163 -0.83,0.561 -2.04,7.677 -3.537,15.556 -4.742,23.416 -0.243,0.191 -0.278,0.531 -0.13,0.82 -0.047,0.31 -0.101,0.621 -0.147,0.931 -0.014,0.094 0.046,0.153 0.055,0.238 -0.464,0.04 -0.862,0.399 -1.03,0.85 -2.771,1.374 -5.345,3.28 -8.016,4.816 -3.362,1.934 -6.819,3.654 -10.287,5.381 -0.075,-0.143 -0.098,-0.298 -0.19,-0.437 -0.21,-0.317 -0.536,-0.427 -0.873,-0.452 -0.018,-0.394 -0.181,-0.788 -0.589,-1.072 -9.593,-6.687 -18.79,-13.755 -27.894,-21.091 -0.476,-0.383 -1.025,-0.338 -1.438,-0.09 -0.014,-0.01 -0.032,-0.008 -0.045,-0.018 -0.194,-8.061 0.66,-15.669 1.838,-23.644 0.185,0.104 0.401,0.145 0.649,0.057 8.038,-2.833 17.64,-6.249 24.192,-11.785 0.888,-0.75 -0.058,-2.37 -1.149,-1.973 -3.931,1.43 -7.497,3.864 -11.207,5.794 -4.152,2.159 -8.38,4.133 -12.603,6.146 -0.114,-0.276 -0.329,-0.519 -0.671,-0.657 -3.785,-1.528 -7.828,-3.227 -11.947,-4.779 4.066,0.203 8.105,0.518 12.139,1.185 0.741,0.122 1.076,-0.979 0.316,-1.147 -4.845,-1.077 -9.733,-1.611 -14.702,-1.325 -0.235,0.014 -0.368,0.143 -0.455,0.3 -4.393,-1.555 -8.834,-2.865 -13.121,-3.505 0.006,-0.062 0.061,-0.093 0.056,-0.161 -0.019,-0.273 -0.063,-0.55 -0.088,-0.824 8.723,0.316 17.442,0.615 26.17,0.774 0.899,0.017 0.896,-1.366 0,-1.394 -8.764,-0.278 -17.527,-0.416 -26.294,-0.537 -0.172,-1.479 -0.386,-2.962 -0.663,-4.443 2.135,0.283 4.274,0.421 6.461,0.248 0.604,-0.048 0.61,-0.996 0,-0.948 -2.23,0.177 -4.442,0.049 -6.645,-0.223 -0.317,-1.599 -0.661,-3.192 -1.021,-4.753 0.346,-0.133 0.707,-0.245 1.056,-0.377 z m 52.182,134.582 c -1.895,4.475 -3.802,8.945 -5.768,13.393 -0.032,0.073 0.009,0.133 -0.007,0.204 -0.24,0.118 -0.436,0.301 -0.545,0.542 -13.192,0.709 -26.216,0.261 -39.371,-0.754 0.065,-0.155 0.153,-0.309 0.217,-0.464 0.281,-0.68 -0.328,-1.036 -0.903,-0.978 -1.905,-8.704 -3.291,-17.396 -3.861,-26.302 -0.014,-0.223 -0.089,-0.397 -0.189,-0.544 0.153,-0.062 0.312,-0.116 0.426,-0.286 2.775,-4.161 5.761,-8.183 8.914,-12.065 10.392,0.983 20.798,0.856 31.208,0.116 0.555,-0.04 0.906,-0.379 1.063,-0.789 0.038,0.015 0.079,-0.002 0.118,0.009 0.041,0.114 0.032,0.23 0.137,0.336 4.736,4.758 9.433,9.608 14.421,14.112 -0.128,0.105 -0.244,0.232 -0.322,0.414 -1.694,3.951 -3.361,7.912 -5.035,11.87 -0.151,-0.008 -0.301,-0.024 -0.452,-0.032 -0.791,-0.041 -0.764,1.072 -0.051,1.218 z M 22.143,93.078 c 3.74,-1.556 7.013,-4.581 10.367,-6.828 3.487,-2.335 7.631,-4.329 10.633,-7.265 0.228,-0.223 0.294,-0.502 0.287,-0.784 0.147,-0.025 0.269,-0.11 0.389,-0.193 3.592,2.11 8.884,5.125 13.233,4.857 5.164,11.027 9.319,22.35 13.353,33.827 0.186,0.528 0.652,0.575 1.038,0.421 -2.871,3.692 -5.559,7.497 -8.013,11.489 -0.148,0.24 -0.164,0.472 -0.102,0.673 -0.064,-0.06 -0.116,-0.131 -0.222,-0.15 -10.765,-1.847 -21.613,-3.409 -32.406,-5.128 -0.064,-0.291 -0.224,-0.555 -0.526,-0.639 -0.077,-0.021 -0.153,-0.042 -0.23,-0.063 -0.158,-0.044 -0.283,0.003 -0.411,0.041 0.074,-1.347 -0.204,-2.638 -0.838,-3.875 -0.472,-1.395 -0.923,-2.797 -1.353,-4.206 -0.649,-2.112 -1.258,-4.236 -1.812,-6.374 -1.26,-4.865 -2.194,-9.797 -3.202,-14.717 0.073,-0.374 0.055,-0.768 -0.185,-1.086 z M 88.63,58.27 c -10.094,7.551 -20.292,14.908 -30.994,21.584 -0.323,0.201 -0.444,0.478 -0.476,0.765 -1.667,-0.72 -3.588,-0.956 -5.322,-1.47 -2.517,-0.747 -4.932,-1.695 -7.292,-2.848 -0.164,-0.08 -0.308,-0.04 -0.458,-0.034 -0.692,-11.074 -1.58,-22.124 -2.018,-33.216 -0.011,-0.275 -0.111,-0.483 -0.236,-0.667 6.879,-6.085 13.76,-11.882 21.422,-16.997 0.341,-0.227 0.517,-0.534 0.574,-0.854 7.935,4.388 18.034,7.031 26.683,9.549 -2.33,7.662 -2.717,16.261 -1.883,24.188 z m 17.01,56.968 c -0.158,-0.075 -0.34,-0.122 -0.563,-0.111 -11.02,0.576 -22.008,0.341 -33.03,-0.017 -0.148,-0.005 -0.213,0.088 -0.329,0.124 -0.268,-1.182 -0.629,-2.335 -0.931,-3.507 6.779,0.863 13.588,1.087 20.417,0.894 0.883,-0.025 0.888,-1.386 0,-1.376 -6.935,0.084 -13.836,-0.264 -20.748,-0.765 -0.677,-2.512 -1.426,-5.001 -2.242,-7.468 4.383,0.098 8.708,0.138 13.076,0.716 0.618,0.082 0.768,-0.994 0.148,-1.096 -4.453,-0.73 -9.055,-1.097 -13.553,-0.532 -0.806,-2.383 -1.753,-4.715 -2.674,-7.057 11.314,-0.595 22.611,-0.502 33.927,0.168 0.845,0.05 0.821,-1.222 0,-1.301 -11.482,-1.107 -22.92,-1.06 -34.396,-0.105 -1.681,-4.171 -3.479,-8.297 -5.494,-12.327 4.305,-2.392 8.517,-4.934 12.668,-7.569 7.065,-0.825 14.116,-0.546 21.115,0.768 0.697,0.131 1.004,-0.916 0.297,-1.076 -6.426,-1.449 -12.801,-1.714 -19.282,-1.038 2.937,-1.912 5.828,-3.892 8.667,-5.949 5.757,0.259 11.326,1.289 16.903,2.847 0.724,0.202 0.995,-0.862 0.307,-1.112 -5.1,-1.854 -10.421,-2.675 -15.807,-2.813 2.249,-1.662 4.488,-3.339 6.658,-5.115 0.027,-0.022 0.034,-0.051 0.058,-0.074 8.466,7.926 17.858,15.056 27.637,21.267 0.28,0.178 0.545,0.213 0.795,0.192 0.85,2.848 -3.135,9.031 -4.278,11.556 -1.091,2.41 -2.171,4.824 -3.232,7.248 -2.121,4.843 -4.162,9.716 -6.114,14.628 z M 59.832,11.189 c 0.103,1.227 0.248,2.476 0.381,3.72 -0.504,-0.073 -0.719,0.683 -0.2,0.802 0.095,0.022 0.191,0.023 0.286,0.044 0.277,2.42 0.62,4.831 1.181,7.136 0.041,0.169 0.165,0.249 0.261,0.362 C 53.935,28.269 46.33,34.211 40.111,41.124 34.478,40.456 29.072,39.344 23.57,38.012 32.847,26.38 45.262,17.187 59.832,11.189 Z M 5.764,83.767 c 5.34,0.467 10.678,0.98 16.028,1.307 0.568,0.035 0.55,-0.818 0,-0.874 -5.309,-0.537 -10.636,-0.893 -15.957,-1.29 0.196,-2.302 0.502,-4.56 0.869,-6.793 5.246,0.436 10.49,0.868 15.746,1.191 0.723,0.044 0.705,-1.05 0,-1.116 -5.172,-0.481 -10.349,-0.852 -15.528,-1.223 0.434,-2.438 1,-4.818 1.63,-7.168 5.958,0.095 11.903,0.166 17.858,0.472 0.862,0.044 0.856,-1.287 0,-1.339 -5.828,-0.348 -11.698,-0.507 -17.54,-0.324 0.839,-2.956 1.879,-5.81 3.016,-8.611 3.521,0.059 7.042,0.117 10.563,0.065 0.61,-0.009 0.611,-0.939 0,-0.948 -3.402,-0.05 -6.804,0.007 -10.205,0.063 2.537,-6.063 5.7,-11.773 9.572,-16.979 0.09,0.058 0.166,0.125 0.278,0.166 5.461,2.021 11.543,2.861 17.395,2.792 0.222,11.363 0.976,22.736 2.9,33.947 -0.118,-0.004 -0.22,-0.059 -0.348,-0.016 -4.198,1.396 -8.006,4.564 -11.565,7.139 -3.191,2.31 -7.115,4.667 -9.408,7.913 -0.06,0.084 -0.059,0.182 -0.069,0.277 C 15.994,90.74 11.173,88.836 6.475,86.394 6.139,86.219 5.821,86.23 5.552,86.342 5.591,85.473 5.699,84.628 5.764,83.767 Z m -0.23,11 c -0.097,-2.16 -0.06,-4.276 -0.009,-6.387 4.753,2.9 9.899,5.279 15.268,6.787 0.024,0.007 0.039,-0.008 0.063,-0.003 0.714,5.907 1.996,11.721 3.617,17.446 0.918,3.244 1.599,8.757 3.943,11.63 -0.136,-0.007 -0.273,0.001 -0.409,0.06 -2.411,1.049 -4.401,3.439 -6.32,5.21 -0.325,0.3 -0.647,0.603 -0.972,0.904 -0.085,0.011 -0.171,0.01 -0.256,0.021 -0.341,0.043 -0.473,0.357 -0.432,0.619 -1.066,0.99 -2.133,1.979 -3.196,2.972 C 10.222,122.742 6.193,109.518 5.534,94.767 Z m 54.338,74.837 c -2.783,-1.049 -5.465,-2.261 -8.076,-3.58 2.613,-0.45 5.229,-0.881 7.829,-1.402 0.679,-0.136 0.378,-1.121 -0.282,-1.022 -3.075,0.461 -6.132,1.025 -9.192,1.574 -2.602,-1.386 -5.129,-2.88 -7.56,-4.497 5.846,0.067 11.693,0.122 17.539,0.059 0.873,-0.009 0.875,-1.348 0,-1.357 -6.39,-0.069 -12.781,-0.012 -19.171,0.065 -0.071,0.001 -0.102,0.052 -0.161,0.07 -2.133,-1.497 -4.204,-3.071 -6.182,-4.749 3.657,0.015 7.313,0.034 10.971,-0.044 0.789,-0.017 0.791,-1.21 0,-1.227 -4.177,-0.089 -8.351,-0.073 -12.528,-0.05 -2.779,-2.477 -5.398,-5.124 -7.818,-7.956 6.727,0.642 13.615,0.537 20.347,0.639 0.792,0.012 0.786,-1.193 0,-1.227 -7.043,-0.307 -14.253,-0.872 -21.313,-0.529 -1.631,-1.98 -3.201,-4.014 -4.644,-6.154 4.548,0.182 9.04,0.015 13.567,-0.654 0.676,-0.1 0.524,-1.291 -0.163,-1.205 -4.738,0.592 -9.505,0.77 -14.274,0.578 -0.29,-0.448 -0.616,-0.866 -0.897,-1.32 1.814,-1.474 3.626,-2.951 5.432,-4.438 4.555,-0.421 9.113,-0.584 13.697,-0.381 0.6,0.026 0.593,-0.892 0,-0.93 -4.119,-0.262 -8.216,-0.113 -12.31,0.22 1.72,-1.323 3.537,-2.7 4.623,-4.49 0.015,-0.025 0.003,-0.045 0.015,-0.07 0.036,0.015 0.039,0.049 0.078,0.061 10.667,3.193 22.057,5.405 33.196,6.004 0.2,8.839 1.241,17.619 3.441,26.196 0.11,0.429 0.354,0.704 0.653,0.849 -2.504,3.435 -4.833,7.196 -6.817,10.967 z m 29.104,6.067 c -9.208,-0.502 -18.021,-2.228 -26.251,-5.025 2.186,-3.501 4.13,-7.255 5.806,-11.003 13.367,2.53 26.979,2.958 40.526,1.822 0.086,-0.007 0.15,-0.046 0.227,-0.065 1.222,2.999 2.97,5.804 5.022,8.318 -8.004,2.99 -16.517,5.014 -25.33,5.953 z m 27.278,-6.717 c -1.2,-1.799 -2.212,-3.664 -3.148,-5.575 4.145,0.405 8.31,0.566 12.472,0.682 0.917,0.026 0.898,-1.348 0,-1.413 -4.347,-0.315 -8.704,-0.602 -13.066,-0.586 -0.467,-1.015 -0.956,-2.009 -1.385,-3.068 -0.013,-0.033 -0.038,-0.051 -0.053,-0.082 0.742,-1.452 1.464,-2.917 2.19,-4.38 0.069,0.071 0.132,0.151 0.251,0.168 5.793,0.813 11.515,1.192 17.351,0.655 0.738,-0.068 0.767,-1.173 0,-1.171 -5.705,0.011 -11.411,-0.073 -17.087,-0.682 1.385,-2.816 2.709,-5.666 4.012,-8.524 7.86,0.836 15.75,1.462 23.644,1.81 0.66,0.029 0.623,-0.928 0,-1.004 -7.651,-0.936 -15.346,-1.606 -23.044,-2.081 1.509,-3.357 2.935,-6.747 4.281,-10.164 0.084,0.048 0.144,0.123 0.257,0.133 9.263,0.847 18.482,1.078 27.768,0.54 0.794,-0.046 0.808,-1.246 0,-1.246 -8.982,0.008 -17.963,-0.155 -26.933,-0.603 0.296,-0.301 0.459,-0.723 0.293,-1.152 4.912,-1.008 10.09,-2.341 15.114,-3.94 5.975,1.082 11.947,2.147 17.964,2.977 0.863,0.119 1.27,-1.167 0.371,-1.345 -5.104,-1.008 -10.235,-1.832 -15.372,-2.631 2.968,-1.032 5.873,-2.132 8.546,-3.378 1.283,-0.599 0.313,-2.358 -0.902,-2.141 -8.914,1.592 -18.811,5.132 -27.235,8.853 -4.772,-4.771 -9.882,-9.229 -14.9,-13.731 3.66,-7.326 7.081,-14.761 10.391,-22.252 1.343,-3.04 4.433,-7.286 3.957,-10.825 6.165,-2.097 13.847,-5.11 18.847,-9.621 6.031,6.762 12.045,13.998 18.874,19.954 -0.338,0.41 -0.359,0.978 -0.161,1.423 -2.078,8.471 -4.827,16.743 -7.888,24.904 -0.175,0.467 0.081,0.84 0.432,1.092 -1.008,-0.003 -1.302,1.448 -0.256,1.871 3.692,1.493 7.194,3.262 10.657,5.222 0.138,0.078 0.271,0.106 0.403,0.133 -9.707,18.82 -26.436,33.144 -46.645,41.178 z m 47.719,-43.36 c -0.062,-0.056 -0.103,-0.12 -0.182,-0.168 -3.318,-2.035 -6.938,-3.542 -10.669,-4.642 0.227,-0.071 0.431,-0.213 0.546,-0.482 3.516,-8.228 6.076,-16.669 8.057,-25.387 0,-0.001 0,-0.002 0,-0.002 3.467,-1.074 6.87,-2.383 10.24,-3.748 -0.224,12.577 -3.072,24.141 -7.992,34.429 z m 8.005,-36.409 c -3.577,0.939 -7.146,1.949 -10.628,3.178 -2.485,-3.396 -5.276,-6.621 -8.168,-9.769 0.058,0.019 0.089,0.069 0.16,0.07 4.632,0.075 9.251,0.098 13.883,0.037 0.837,-0.011 0.839,-1.291 0,-1.301 -4.632,-0.061 -9.251,-0.038 -13.883,0.037 -0.449,0.007 -0.613,0.389 -0.552,0.727 -1.481,-1.603 -2.978,-3.193 -4.49,-4.763 5.438,0.203 10.879,0.597 16.281,1.241 0.618,0.074 0.769,-0.999 0.148,-1.096 -5.842,-0.906 -11.646,-1.34 -17.555,-1.327 -1.663,-1.721 -3.324,-3.429 -4.952,-5.139 -0.012,-0.044 -0.011,-0.09 -0.028,-0.132 0.16,-0.106 0.305,-0.249 0.368,-0.506 0.075,-0.307 0.134,-0.619 0.207,-0.926 5.502,0.504 11.013,0.874 16.528,1.21 0.843,0.051 0.824,-1.227 0,-1.301 -5.404,-0.486 -10.809,-0.938 -16.224,-1.264 0.367,-1.594 0.74,-3.186 1.071,-4.791 4.341,-0.687 8.642,-0.58 12.976,0.194 0.882,0.158 1.273,-1.161 0.376,-1.362 -4.373,-0.983 -8.745,-0.928 -13.108,-0.069 0.315,-1.568 0.632,-3.135 0.925,-4.708 3.562,-0.353 7.123,-0.7 10.674,-1.161 0.81,-0.105 0.846,-1.38 0,-1.302 -3.488,0.322 -6.962,0.757 -10.438,1.184 0.235,-1.297 0.498,-2.589 0.717,-3.889 3.455,0.132 6.93,0.138 10.382,0.054 0.861,-0.021 0.863,-1.318 0,-1.339 -3.385,-0.083 -6.791,-0.075 -10.179,0.049 0.295,-1.824 0.661,-3.641 0.902,-5.469 0.127,0.012 0.223,0.082 0.376,0.039 3.256,-0.924 6.844,-1.775 9.954,-3.223 8.497,13.609 13.925,29.142 14.287,45.171 0.013,0.555 -0.012,1.095 -0.01,1.646 z"
			id="path6" style="display:inline;fill:#008000;fill-opacity:1"
			inkscape:original-d="m 174.692,88.613 c -0.003,-0.359 0.013,-0.714 0.006,-1.074 C 174.015,53.896 152.42,18.67 121.702,5.452 c 0.002,-0.02 0.006,-0.041 0.008,-0.061 0.128,-1.179 -1.503,-1.575 -2.188,-0.85 C 109.147,0.488 97.795,-1.073 85.89,0.763 79.79,1.704 73.868,3.104 68.177,4.927 67.918,4.933 67.66,4.93 67.401,4.937 67.144,4.944 67.019,5.131 67.002,5.326 28.398,18.174 0.822,50.836 2.746,94.767 c 0.642,14.675 5.03,28.846 12.238,41.208 -0.122,0.429 0.133,0.814 0.555,0.957 9.982,16.65 25.162,29.86 43.309,36.347 0.331,0.428 0.898,0.645 1.436,0.504 8.25,2.763 17.086,4.156 26.321,3.837 0.158,0.137 0.346,0.253 0.627,0.251 47.907,-0.457 87.041,-40.095 87.451,-87.794 0.006,-0.003 0.013,-0.005 0.019,-0.007 0.755,-0.31 0.627,-1.28 -0.01,-1.457 z M 121.28,8.554 c 8.048,3.429 15.622,8.703 22.698,16.136 4.507,4.735 8.631,9.924 12.27,15.44 -2.934,0.792 -5.864,2.153 -8.627,3.329 0.337,-0.375 0.445,-0.938 -0.024,-1.337 -9.059,-7.732 -18.845,-14.906 -28.304,-22.192 0.854,-3.751 1.489,-7.556 1.987,-11.376 z M 62.775,10.1 c 6.152,0.856 12.281,1.281 18.51,1.149 0.765,-0.016 0.768,-1.186 0,-1.19 C 76,10.032 70.726,9.685 65.472,9.134 c 2.735,-0.959 5.509,-1.855 8.386,-2.572 0.988,-0.246 1.956,-0.43 2.935,-0.646 8.549,0.102 17.102,0.1 25.647,-0.077 0.61,-0.013 0.611,-0.936 0,-0.948 C 95.976,4.758 89.508,4.713 83.04,4.732 95.835,2.72 107.776,3.436 118.823,7.577 c -0.678,3.797 -1.2,7.629 -1.527,11.467 -0.65,0.229 -1.069,1.003 -0.405,1.622 0.139,0.13 0.292,0.26 0.432,0.39 0.084,0.127 0.181,0.212 0.315,0.284 8.71,8.072 18.586,16.274 28.732,22.372 0.222,0.133 0.451,0.14 0.666,0.094 -0.167,0.122 -0.343,0.241 -0.416,0.412 -0.359,0.005 -0.724,0.163 -0.83,0.561 -2.04,7.677 -3.537,15.556 -4.742,23.416 -0.243,0.191 -0.278,0.531 -0.13,0.82 -0.047,0.31 -0.101,0.621 -0.147,0.931 -0.014,0.094 0.046,0.153 0.055,0.238 -0.464,0.04 -0.862,0.399 -1.03,0.85 -2.771,1.374 -5.345,3.28 -8.016,4.816 -3.362,1.934 -6.819,3.654 -10.287,5.381 -0.075,-0.143 -0.098,-0.298 -0.19,-0.437 -0.21,-0.317 -0.536,-0.427 -0.873,-0.452 -0.018,-0.394 -0.181,-0.788 -0.589,-1.072 -9.593,-6.687 -18.79,-13.755 -27.894,-21.091 -0.476,-0.383 -1.025,-0.338 -1.438,-0.09 -0.014,-0.01 -0.032,-0.008 -0.045,-0.018 -0.194,-8.061 0.66,-15.669 1.838,-23.644 0.185,0.104 0.401,0.145 0.649,0.057 8.038,-2.833 17.64,-6.249 24.192,-11.785 0.888,-0.75 -0.058,-2.37 -1.149,-1.973 -3.931,1.43 -7.497,3.864 -11.207,5.794 -4.152,2.159 -8.38,4.133 -12.603,6.146 -0.114,-0.276 -0.329,-0.519 -0.671,-0.657 -3.785,-1.528 -7.828,-3.227 -11.947,-4.779 4.066,0.203 8.105,0.518 12.139,1.185 0.741,0.122 1.076,-0.979 0.316,-1.147 -4.845,-1.077 -9.733,-1.611 -14.702,-1.325 -0.235,0.014 -0.368,0.143 -0.455,0.3 -4.393,-1.555 -8.834,-2.865 -13.121,-3.505 0.006,-0.062 0.061,-0.093 0.056,-0.161 -0.019,-0.273 -0.063,-0.55 -0.088,-0.824 8.723,0.316 17.442,0.615 26.17,0.774 0.899,0.017 0.896,-1.366 0,-1.394 -8.764,-0.278 -17.527,-0.416 -26.294,-0.537 -0.172,-1.479 -0.386,-2.962 -0.663,-4.443 2.135,0.283 4.274,0.421 6.461,0.248 0.604,-0.048 0.61,-0.996 0,-0.948 -2.23,0.177 -4.442,0.049 -6.645,-0.223 -0.317,-1.599 -0.661,-3.192 -1.021,-4.753 0.346,-0.133 0.707,-0.245 1.056,-0.377 z m 52.182,134.582 c -1.895,4.475 -3.802,8.945 -5.768,13.393 -0.032,0.073 0.009,0.133 -0.007,0.204 -0.24,0.118 -0.436,0.301 -0.545,0.542 -13.192,0.709 -26.216,0.261 -39.371,-0.754 0.065,-0.155 0.153,-0.309 0.217,-0.464 0.281,-0.68 -0.328,-1.036 -0.903,-0.978 -1.905,-8.704 -3.291,-17.396 -3.861,-26.302 -0.014,-0.223 -0.089,-0.397 -0.189,-0.544 0.153,-0.062 0.312,-0.116 0.426,-0.286 2.775,-4.161 5.761,-8.183 8.914,-12.065 10.392,0.983 20.798,0.856 31.208,0.116 0.555,-0.04 0.906,-0.379 1.063,-0.789 0.038,0.015 0.079,-0.002 0.118,0.009 0.041,0.114 0.032,0.23 0.137,0.336 4.736,4.758 9.433,9.608 14.421,14.112 -0.128,0.105 -0.244,0.232 -0.322,0.414 -1.694,3.951 -3.361,7.912 -5.035,11.87 -0.151,-0.008 -0.301,-0.024 -0.452,-0.032 -0.791,-0.041 -0.764,1.072 -0.051,1.218 z M 22.143,93.078 c 3.74,-1.556 7.013,-4.581 10.367,-6.828 3.487,-2.335 7.631,-4.329 10.633,-7.265 0.228,-0.223 0.294,-0.502 0.287,-0.784 0.147,-0.025 0.269,-0.11 0.389,-0.193 3.592,2.11 8.884,5.125 13.233,4.857 5.164,11.027 9.319,22.35 13.353,33.827 0.186,0.528 0.652,0.575 1.038,0.421 -2.871,3.692 -5.559,7.497 -8.013,11.489 -0.148,0.24 -0.164,0.472 -0.102,0.673 -0.064,-0.06 -0.116,-0.131 -0.222,-0.15 -10.765,-1.847 -21.613,-3.409 -32.406,-5.128 -0.064,-0.291 -0.224,-0.555 -0.526,-0.639 -0.077,-0.021 -0.153,-0.042 -0.23,-0.063 -0.158,-0.044 -0.283,0.003 -0.411,0.041 0.074,-1.347 -0.204,-2.638 -0.838,-3.875 -0.472,-1.395 -0.923,-2.797 -1.353,-4.206 -0.649,-2.112 -1.258,-4.236 -1.812,-6.374 -1.26,-4.865 -2.194,-9.797 -3.202,-14.717 0.073,-0.374 0.055,-0.768 -0.185,-1.086 z M 88.63,58.27 c -10.094,7.551 -20.292,14.908 -30.994,21.584 -0.323,0.201 -0.444,0.478 -0.476,0.765 -1.667,-0.72 -3.588,-0.956 -5.322,-1.47 -2.517,-0.747 -4.932,-1.695 -7.292,-2.848 -0.164,-0.08 -0.308,-0.04 -0.458,-0.034 -0.692,-11.074 -1.58,-22.124 -2.018,-33.216 -0.011,-0.275 -0.111,-0.483 -0.236,-0.667 6.879,-6.085 13.76,-11.882 21.422,-16.997 0.341,-0.227 0.517,-0.534 0.574,-0.854 7.935,4.388 18.034,7.031 26.683,9.549 -2.33,7.662 -2.717,16.261 -1.883,24.188 z m 17.01,56.968 c -0.158,-0.075 -0.34,-0.122 -0.563,-0.111 -11.02,0.576 -22.008,0.341 -33.03,-0.017 -0.148,-0.005 -0.213,0.088 -0.329,0.124 -0.268,-1.182 -0.629,-2.335 -0.931,-3.507 6.779,0.863 13.588,1.087 20.417,0.894 0.883,-0.025 0.888,-1.386 0,-1.376 -6.935,0.084 -13.836,-0.264 -20.748,-0.765 -0.677,-2.512 -1.426,-5.001 -2.242,-7.468 4.383,0.098 8.708,0.138 13.076,0.716 0.618,0.082 0.768,-0.994 0.148,-1.096 -4.453,-0.73 -9.055,-1.097 -13.553,-0.532 -0.806,-2.383 -1.753,-4.715 -2.674,-7.057 11.314,-0.595 22.611,-0.502 33.927,0.168 0.845,0.05 0.821,-1.222 0,-1.301 -11.482,-1.107 -22.92,-1.06 -34.396,-0.105 -1.681,-4.171 -3.479,-8.297 -5.494,-12.327 4.305,-2.392 8.517,-4.934 12.668,-7.569 7.065,-0.825 14.116,-0.546 21.115,0.768 0.697,0.131 1.004,-0.916 0.297,-1.076 -6.426,-1.449 -12.801,-1.714 -19.282,-1.038 2.937,-1.912 5.828,-3.892 8.667,-5.949 5.757,0.259 11.326,1.289 16.903,2.847 0.724,0.202 0.995,-0.862 0.307,-1.112 -5.1,-1.854 -10.421,-2.675 -15.807,-2.813 2.249,-1.662 4.488,-3.339 6.658,-5.115 0.027,-0.022 0.034,-0.051 0.058,-0.074 8.466,7.926 17.858,15.056 27.637,21.267 0.28,0.178 0.545,0.213 0.795,0.192 0.85,2.848 -3.135,9.031 -4.278,11.556 -1.091,2.41 -2.171,4.824 -3.232,7.248 -2.121,4.843 -4.162,9.716 -6.114,14.628 z M 59.832,11.189 c 0.103,1.227 0.248,2.476 0.381,3.72 -0.504,-0.073 -0.719,0.683 -0.2,0.802 0.095,0.022 0.191,0.023 0.286,0.044 0.277,2.42 0.62,4.831 1.181,7.136 0.041,0.169 0.165,0.249 0.261,0.362 C 53.935,28.269 46.33,34.211 40.111,41.124 34.478,40.456 29.072,39.344 23.57,38.012 32.847,26.38 45.262,17.187 59.832,11.189 Z M 5.764,83.767 c 5.34,0.467 10.678,0.98 16.028,1.307 0.568,0.035 0.55,-0.818 0,-0.874 -5.309,-0.537 -10.636,-0.893 -15.957,-1.29 0.196,-2.302 0.502,-4.56 0.869,-6.793 5.246,0.436 10.49,0.868 15.746,1.191 0.723,0.044 0.705,-1.05 0,-1.116 -5.172,-0.481 -10.349,-0.852 -15.528,-1.223 0.434,-2.438 1,-4.818 1.63,-7.168 5.958,0.095 11.903,0.166 17.858,0.472 0.862,0.044 0.856,-1.287 0,-1.339 -5.828,-0.348 -11.698,-0.507 -17.54,-0.324 0.839,-2.956 1.879,-5.81 3.016,-8.611 3.521,0.059 7.042,0.117 10.563,0.065 0.61,-0.009 0.611,-0.939 0,-0.948 -3.402,-0.05 -6.804,0.007 -10.205,0.063 2.537,-6.063 5.7,-11.773 9.572,-16.979 0.09,0.058 0.166,0.125 0.278,0.166 5.461,2.021 11.543,2.861 17.395,2.792 0.222,11.363 0.976,22.736 2.9,33.947 -0.118,-0.004 -0.22,-0.059 -0.348,-0.016 -4.198,1.396 -8.006,4.564 -11.565,7.139 -3.191,2.31 -7.115,4.667 -9.408,7.913 -0.06,0.084 -0.059,0.182 -0.069,0.277 C 15.994,90.74 11.173,88.836 6.475,86.394 6.139,86.219 5.821,86.23 5.552,86.342 5.591,85.473 5.699,84.628 5.764,83.767 Z m -0.23,11 c -0.097,-2.16 -0.06,-4.276 -0.009,-6.387 4.753,2.9 9.899,5.279 15.268,6.787 0.024,0.007 0.039,-0.008 0.063,-0.003 0.714,5.907 1.996,11.721 3.617,17.446 0.918,3.244 1.599,8.757 3.943,11.63 -0.136,-0.007 -0.273,0.001 -0.409,0.06 -2.411,1.049 -4.401,3.439 -6.32,5.21 -0.325,0.3 -0.647,0.603 -0.972,0.904 -0.085,0.011 -0.171,0.01 -0.256,0.021 -0.341,0.043 -0.473,0.357 -0.432,0.619 -1.066,0.99 -2.133,1.979 -3.196,2.972 C 10.222,122.742 6.193,109.518 5.534,94.767 Z m 54.338,74.837 c -2.783,-1.049 -5.465,-2.261 -8.076,-3.58 2.613,-0.45 5.229,-0.881 7.829,-1.402 0.679,-0.136 0.378,-1.121 -0.282,-1.022 -3.075,0.461 -6.132,1.025 -9.192,1.574 -2.602,-1.386 -5.129,-2.88 -7.56,-4.497 5.846,0.067 11.693,0.122 17.539,0.059 0.873,-0.009 0.875,-1.348 0,-1.357 -6.39,-0.069 -12.781,-0.012 -19.171,0.065 -0.071,0.001 -0.102,0.052 -0.161,0.07 -2.133,-1.497 -4.204,-3.071 -6.182,-4.749 3.657,0.015 7.313,0.034 10.971,-0.044 0.789,-0.017 0.791,-1.21 0,-1.227 -4.177,-0.089 -8.351,-0.073 -12.528,-0.05 -2.779,-2.477 -5.398,-5.124 -7.818,-7.956 6.727,0.642 13.615,0.537 20.347,0.639 0.792,0.012 0.786,-1.193 0,-1.227 -7.043,-0.307 -14.253,-0.872 -21.313,-0.529 -1.631,-1.98 -3.201,-4.014 -4.644,-6.154 4.548,0.182 9.04,0.015 13.567,-0.654 0.676,-0.1 0.524,-1.291 -0.163,-1.205 -4.738,0.592 -9.505,0.77 -14.274,0.578 -0.29,-0.448 -0.616,-0.866 -0.897,-1.32 1.814,-1.474 3.626,-2.951 5.432,-4.438 4.555,-0.421 9.113,-0.584 13.697,-0.381 0.6,0.026 0.593,-0.892 0,-0.93 -4.119,-0.262 -8.216,-0.113 -12.31,0.22 1.72,-1.323 3.537,-2.7 4.623,-4.49 0.015,-0.025 0.003,-0.045 0.015,-0.07 0.036,0.015 0.039,0.049 0.078,0.061 10.667,3.193 22.057,5.405 33.196,6.004 0.2,8.839 1.241,17.619 3.441,26.196 0.11,0.429 0.354,0.704 0.653,0.849 -2.504,3.435 -4.833,7.196 -6.817,10.967 z m 29.104,6.067 c -9.208,-0.502 -18.021,-2.228 -26.251,-5.025 2.186,-3.501 4.13,-7.255 5.806,-11.003 13.367,2.53 26.979,2.958 40.526,1.822 0.086,-0.007 0.15,-0.046 0.227,-0.065 1.222,2.999 2.97,5.804 5.022,8.318 -8.004,2.99 -16.517,5.014 -25.33,5.953 z m 27.278,-6.717 c -1.2,-1.799 -2.212,-3.664 -3.148,-5.575 4.145,0.405 8.31,0.566 12.472,0.682 0.917,0.026 0.898,-1.348 0,-1.413 -4.347,-0.315 -8.704,-0.602 -13.066,-0.586 -0.467,-1.015 -0.956,-2.009 -1.385,-3.068 -0.013,-0.033 -0.038,-0.051 -0.053,-0.082 0.742,-1.452 1.464,-2.917 2.19,-4.38 0.069,0.071 0.132,0.151 0.251,0.168 5.793,0.813 11.515,1.192 17.351,0.655 0.738,-0.068 0.767,-1.173 0,-1.171 -5.705,0.011 -11.411,-0.073 -17.087,-0.682 1.385,-2.816 2.709,-5.666 4.012,-8.524 7.86,0.836 15.75,1.462 23.644,1.81 0.66,0.029 0.623,-0.928 0,-1.004 -7.651,-0.936 -15.346,-1.606 -23.044,-2.081 1.509,-3.357 2.935,-6.747 4.281,-10.164 0.084,0.048 0.144,0.123 0.257,0.133 9.263,0.847 18.482,1.078 27.768,0.54 0.794,-0.046 0.808,-1.246 0,-1.246 -8.982,0.008 -17.963,-0.155 -26.933,-0.603 0.296,-0.301 0.459,-0.723 0.293,-1.152 4.912,-1.008 10.09,-2.341 15.114,-3.94 5.975,1.082 11.947,2.147 17.964,2.977 0.863,0.119 1.27,-1.167 0.371,-1.345 -5.104,-1.008 -10.235,-1.832 -15.372,-2.631 2.968,-1.032 5.873,-2.132 8.546,-3.378 1.283,-0.599 0.313,-2.358 -0.902,-2.141 -8.914,1.592 -18.811,5.132 -27.235,8.853 -4.772,-4.771 -9.882,-9.229 -14.9,-13.731 3.66,-7.326 7.081,-14.761 10.391,-22.252 1.343,-3.04 4.433,-7.286 3.957,-10.825 6.165,-2.097 13.847,-5.11 18.847,-9.621 6.031,6.762 12.045,13.998 18.874,19.954 -0.338,0.41 -0.359,0.978 -0.161,1.423 -2.078,8.471 -4.827,16.743 -7.888,24.904 -0.175,0.467 0.081,0.84 0.432,1.092 -1.008,-0.003 -1.302,1.448 -0.256,1.871 3.692,1.493 7.194,3.262 10.657,5.222 0.138,0.078 0.271,0.106 0.403,0.133 -9.707,18.82 -26.436,33.144 -46.645,41.178 z m 47.719,-43.36 c -0.062,-0.056 -0.103,-0.12 -0.182,-0.168 -3.318,-2.035 -6.938,-3.542 -10.669,-4.642 0.227,-0.071 0.431,-0.213 0.546,-0.482 3.516,-8.228 6.076,-16.669 8.057,-25.387 0,-0.001 0,-0.002 0,-0.002 3.467,-1.074 6.87,-2.383 10.24,-3.748 -0.224,12.577 -3.072,24.141 -7.992,34.429 z m 8.005,-36.409 c -3.577,0.939 -7.146,1.949 -10.628,3.178 -2.485,-3.396 -5.276,-6.621 -8.168,-9.769 0.058,0.019 0.089,0.069 0.16,0.07 4.632,0.075 9.251,0.098 13.883,0.037 0.837,-0.011 0.839,-1.291 0,-1.301 -4.632,-0.061 -9.251,-0.038 -13.883,0.037 -0.449,0.007 -0.613,0.389 -0.552,0.727 -1.481,-1.603 -2.978,-3.193 -4.49,-4.763 5.438,0.203 10.879,0.597 16.281,1.241 0.618,0.074 0.769,-0.999 0.148,-1.096 -5.842,-0.906 -11.646,-1.34 -17.555,-1.327 -1.663,-1.721 -3.324,-3.429 -4.952,-5.139 -0.012,-0.044 -0.011,-0.09 -0.028,-0.132 0.16,-0.106 0.305,-0.249 0.368,-0.506 0.075,-0.307 0.134,-0.619 0.207,-0.926 5.502,0.504 11.013,0.874 16.528,1.21 0.843,0.051 0.824,-1.227 0,-1.301 -5.404,-0.486 -10.809,-0.938 -16.224,-1.264 0.367,-1.594 0.74,-3.186 1.071,-4.791 4.341,-0.687 8.642,-0.58 12.976,0.194 0.882,0.158 1.273,-1.161 0.376,-1.362 -4.373,-0.983 -8.745,-0.928 -13.108,-0.069 0.315,-1.568 0.632,-3.135 0.925,-4.708 3.562,-0.353 7.123,-0.7 10.674,-1.161 0.81,-0.105 0.846,-1.38 0,-1.302 -3.488,0.322 -6.962,0.757 -10.438,1.184 0.235,-1.297 0.498,-2.589 0.717,-3.889 3.455,0.132 6.93,0.138 10.382,0.054 0.861,-0.021 0.863,-1.318 0,-1.339 -3.385,-0.083 -6.791,-0.075 -10.179,0.049 0.295,-1.824 0.661,-3.641 0.902,-5.469 0.127,0.012 0.223,0.082 0.376,0.039 3.256,-0.924 6.844,-1.775 9.954,-3.223 8.497,13.609 13.925,29.142 14.287,45.171 0.013,0.555 -0.012,1.095 -0.01,1.646 z" />
	</g>















</svg>