<?xml version="1.0" encoding="UTF-8" standalone="no"?>
<svg
   xmlns:dc="http://purl.org/dc/elements/1.1/"
   xmlns:cc="http://creativecommons.org/ns#"
   xmlns:rdf="http://www.w3.org/1999/02/22-rdf-syntax-ns#"
   xmlns:svg="http://www.w3.org/2000/svg"
   xmlns="http://www.w3.org/2000/svg"
   xmlns:sodipodi="http://sodipodi.sourceforge.net/DTD/sodipodi-0.dtd"
   xmlns:inkscape="http://www.inkscape.org/namespaces/inkscape"
   width="210mm"
   height="297mm"
   viewBox="0 0 210 297"
   version="1.1"
   id="svg8"
   inkscape:version="1.0.2 (e86c870879, 2021-01-15, custom)"
   sodipodi:docname="stick-figure.svg">
  <defs
     id="defs2" />
  <sodipodi:namedview
     id="base"
     pagecolor="#ffffff"
     bordercolor="#666666"
     borderopacity="1.0"
     inkscape:pageopacity="0.0"
     inkscape:pageshadow="2"
     inkscape:zoom="0.7"
     inkscape:cx="370.14804"
     inkscape:cy="597.4688"
     inkscape:document-units="mm"
     inkscape:current-layer="layer1"
     inkscape:document-rotation="0"
     showgrid="false"
     inkscape:window-width="1254"
     inkscape:window-height="1161"
     inkscape:window-x="2186"
     inkscape:window-y="0"
     inkscape:window-maximized="0" />
  <metadata
     id="metadata5">
    <rdf:RDF>
      <cc:Work
         rdf:about="">
        <dc:format>image/svg+xml</dc:format>
        <dc:type
           rdf:resource="http://purl.org/dc/dcmitype/StillImage" />
        <dc:title />
      </cc:Work>
    </rdf:RDF>
  </metadata>
  <!-- figure -->
  <g
     inkscape:label="Ebene 1"
     inkscape:groupmode="figure"
     id="figure1">
    <g
       id="figure">
      <path
         style="fill:none;fill-rule:evenodd;stroke:#000000;stroke-width:4.9806242;stroke-linecap:round;stroke-linejoin:miter;stroke-miterlimit:4;stroke-dasharray:none;stroke-opacity:1"
         d="m 107.9631,125.45612 60.29851,89.10704"
         id="path2740"
         sodipodi:nodetypes="cc"
         inkscape:connector-curvature="0" />
      <ellipse
         style="fill:none;stroke:#000000;stroke-width:4.9806242;stroke-linecap:round;stroke-linejoin:round;stroke-miterlimit:4;stroke-dasharray:none;stroke-opacity:1;paint-order:stroke fill markers"
         id="path2742"
         cx="107.67829"
         cy="56.986046"
         rx="36.474743"
         ry="36.746941" />
      <path
         style="fill:none;fill-rule:evenodd;stroke:#000000;stroke-width:4.9806242;stroke-linecap:round;stroke-linejoin:miter;stroke-miterlimit:4;stroke-dasharray:none;stroke-opacity:1"
         d="M 108.62699,94.248744 V 248.65369"
         id="path2744"
         sodipodi:nodetypes="cc"
         inkscape:connector-curvature="0" />
      <path
         style="fill:none;fill-rule:evenodd;stroke:#000000;stroke-width:4.9806242;stroke-linecap:round;stroke-linejoin:miter;stroke-miterlimit:4;stroke-dasharray:none;stroke-opacity:1"
         d="m 108.62699,248.65369 14.48338,37.29145"
         id="path2740-2"
         sodipodi:nodetypes="cc"
         inkscape:connector-curvature="0" />
      <path
         style="fill:none;fill-rule:evenodd;stroke:#000000;stroke-width:4.9806242;stroke-linecap:round;stroke-linejoin:miter;stroke-miterlimit:4;stroke-dasharray:none;stroke-opacity:1"
         d="M 44.444357,215.04403 107.9631,125.45612"
         id="path2740-8"
         sodipodi:nodetypes="cc"
         inkscape:connector-curvature="0" />
      <path
         style="fill:none;fill-rule:evenodd;stroke:#000000;stroke-width:4.9806242;stroke-linecap:round;stroke-linejoin:miter;stroke-miterlimit:4;stroke-dasharray:none;stroke-opacity:1"
         d="M 108.62699,248.65369 93.79477,285.94514"
         id="path2740-2-0"
         sodipodi:nodetypes="cc"
         inkscape:connector-curvature="0" />
    </g>   

    <!-- hut
    <path
       style="fill:#000000;stroke:#000000;stroke-width:6;stroke-linecap:butt;stroke-linejoin:miter;stroke-opacity:1;opacity:1"
       d="m 77.107142,37.419642 c 31.372028,9.07143 61.610118,0.755952 61.610118,0.755952 L 138.33928,10.961309 H 74.839284 Z"
       id="hut" />
    -->

   <!-- face
    <g
       id="face">
      <ellipse
         style="opacity:1;fill:#0000ff;stroke-width:6.00001"
         id="path859"
         cx="93.54911"
         cy="57.830357"
         rx="4.7247024"
         ry="4.1577382" />
      <ellipse
         style="opacity:1;fill:#0000ff;stroke-width:6.00001"
         id="path861"
         cx="122.46429"
         cy="57.830357"
         rx="5.6696429"
         ry="4.9136906" />
      <path
         style="fill:none;stroke:#000000;stroke-width:3;stroke-linecap:butt;stroke-linejoin:miter;stroke-opacity:1"
         d="m 89.202381,72.193451 c 3.662994,3.447695 7.669651,6.33314 12.095239,8.693454 4.47247,2.385316 9.83732,2.267855 14.74107,2.267855 0.39118,0 1.67363,0.216252 1.88988,0 0.0891,-0.08909 -0.11269,-0.32163 0,-0.377976 2.23531,-1.117653 -0.80842,1.362265 1.5119,-0.377976 0.0856,-0.06419 1.41306,-1.035074 1.51191,-1.133927 0.0891,-0.08909 0,-0.251984 0,-0.377976 0.12599,-0.251987 0.17877,-0.556742 0.37798,-0.755954 0.31366,-0.313669 1.76981,-0.635889 1.88988,-0.755952 0.082,-0.08201 0.30428,-0.719106 0.37797,-0.755952 0.32201,-0.161004 1.22176,-0.08783 1.51191,-0.377975 0.58418,-0.584185 1.01136,-1.26678 1.5119,-2.267858 0.18139,-0.362767 -0.12099,-1.148919 0,-1.511906 C 126.81446,73.883985 127,74.020105 127,73.327381 c 0,-0.454001 -0.19872,-1.492441 0,-1.889882 0.0797,-0.159369 0.37797,-0.199797 0.37797,-0.377976 0,-0.251984 -0.50396,0 -0.75595,0 -0.71214,0 -1.9869,-0.219646 -2.64583,0 -2.41551,0.805172 -4.8188,2.236229 -7.18155,3.023809 -0.11952,0.03984 -0.25198,0 -0.37797,0 -0.25199,0 -0.51691,-0.07968 -0.75596,0 -0.33807,0.112692 -0.41023,0.669523 -0.75595,0.755952 -0.36669,0.09167 -0.76724,-0.09167 -1.13393,0 -0.92771,0.231928 -3.96045,1.413261 -4.91369,1.889882 -0.86967,0.434834 -3.23612,0 -4.15774,0 -1.09243,0 -3.95635,0.478668 -4.913686,0 -0.556594,-0.278297 -0.501494,-0.501494 -0.755954,-0.755952 -0.35636,-0.356359 -1.007936,0 -1.511904,0 -0.143661,0 -1.469535,-0.54578 -1.889881,-0.755954 -0.228211,-0.114104 -0.959205,0.174725 -1.133928,0 -0.08909,-0.08909 0.08909,-0.288885 0,-0.377976 -0.702937,-0.702937 -2.66279,-0.39493 -3.401787,-1.133927 -0.08909,-0.08909 0.08909,-0.288888 0,-0.377976 -0.519478,-0.51948 -1.302158,-0.693137 -1.889879,-1.13393 z"
         id="path863" />
    </g>
    -->

  </g>
</svg>
